<svg xmlns="http://www.w3.org/2000/svg" viewBox="0 0 1024 1024">
  <!-- Android monochrome adaptive icon — single white silhouette, no background -->
  <g transform="translate(269, 254) scale(4.87)">
    <path d="M 50 14 C 63 36, 76 54, 76 66 A 26 26 0 0 1 24 66 C 24 54, 37 36, 50 14 Z" fill="#FFFFFF"/>
    <path d="M 26 68 C 22 70, 20 76, 22 82 C 24 86, 28 85, 28 80 C 28 74, 27 70, 26 68 Z" fill="#FFFFFF"/>
    <path d="M 74 68 C 78 70, 80 76, 78 82 C 76 86, 72 85, 72 80 C 72 74, 73 70, 74 68 Z" fill="#FFFFFF"/>
  </g>
</svg>
